<?xml version="1.0" standalone="no"?>
<!DOCTYPE svg PUBLIC "-//W3C//DTD SVG 20010904//EN"
 "http://www.w3.org/TR/2001/REC-SVG-20010904/DTD/svg10.dtd">
<svg version="1.0" xmlns="http://www.w3.org/2000/svg"
 width="225.000000pt" height="225.000000pt" viewBox="0 0 225.000000 225.000000"
 preserveAspectRatio="xMidYMid meet">

<g transform="translate(0.000000,225.000000) scale(0.100000,-0.100000)"
fill="#000000" stroke="none">
<path d="M978 1670 c-11 -17 -24 -20 -78 -20 -74 0 -142 -28 -171 -70 -10 -14
-33 -94 -52 -177 l-34 -153 38 0 c43 0 38 -13 80 175 30 131 43 145 139 145
53 0 70 -3 70 -14 0 -22 24 -26 161 -26 117 0 131 2 146 20 14 16 30 20 79 20
85 0 108 -19 128 -110 9 -39 23 -101 32 -140 l16 -70 39 0 c34 0 40 3 35 18
-2 9 -19 79 -36 155 -45 193 -77 227 -220 227 -53 0 -70 3 -70 14 0 22 -24 26
-161 26 -118 0 -130 -2 -141 -20z"/>
<path d="M503 1174 c-20 -20 -24 -31 -19 -57 8 -40 33 -67 63 -67 12 0 23 -1
23 -2 0 -2 18 -101 39 -222 31 -178 43 -222 60 -240 21 -21 25 -21 456 -21
431 0 435 0 456 21 17 18 28 59 55 215 45 260 42 249 65 249 11 0 31 12 46 26
20 20 24 31 19 57 -13 70 18 67 -643 67 l-594 0 -26 -26z m291 -147 c11 -16
16 -60 18 -166 3 -126 1 -145 -14 -154 -13 -9 -21 -7 -36 6 -16 15 -21 37 -26
120 -4 56 -9 120 -12 143 -9 65 39 99 70 51z m244 1 c15 -15 17 -281 2 -309
-6 -11 -21 -19 -35 -19 -14 0 -29 8 -35 19 -5 11 -10 79 -10 151 0 72 5 140
10 151 12 21 50 25 68 7z m240 0 c8 -8 12 -57 12 -153 0 -159 -8 -183 -53
-171 l-27 6 0 159 c0 87 3 161 7 164 11 11 48 8 61 -5z m241 -2 c19 -23 -5
-297 -27 -313 -21 -17 -37 -16 -53 3 -10 13 -11 43 -2 159 6 79 14 148 17 154
10 16 51 14 65 -3z"/>
</g>
</svg>
